# xmcd
#
# Track frame offsets: 
#        150
#        17076
#        34925
#        51462
#        65596
#        82009
#        102086
#        118056
#        140628
#        157339
#
# Disc length: 2332 seconds
#
# Revision: 0
# Processed by: cddbd v1.5.2PL0 Copyright (c) Steve Scherf et al.
# Submitted via: ExactAudioCopyFreeDBPlugin 1.0
#
DISCID=93091a0a
DTITLE=The Southern Drawl Band - Totally Beachin'
DYEAR=2016
DGENRE=Trop Rock
TTITLE0=Island Time (with John Patti)
TTITLE1=Floriday (with Tall Paul)
TTITLE2=Gone With The Wind
TTITLE3=Landlocked
TTITLE4=My Favorite Spot
TTITLE5=Flip Floppin'
TTITLE6=Another Day in Paradise
TTITLE7=27ft of Love
TTITLE8=All Day Long
TTITLE9=Rocketship
EXTD=
EXTT0=
EXTT1=
EXTT2=
EXTT3=
EXTT4=
EXTT5=
EXTT6=
EXTT7=
EXTT8=
EXTT9=
PLAYORDER=
